<mxfile host="app.diagrams.net" modified="2023-12-20T19:05:35.031Z" agent="Mozilla/5.0 (Windows NT 10.0; Win64; x64) AppleWebKit/537.36 (KHTML, like Gecko) Chrome/117.0.0.0 Safari/537.36" etag="dNcAYSNv4tdG_SMgvO9k" version="22.1.11" type="device">
  <diagram name="Trang-1" id="D2Pd-y1mZT9qC0i2RJTu">
    <mxGraphModel dx="2474" dy="853" grid="1" gridSize="10" guides="1" tooltips="1" connect="1" arrows="1" fold="1" page="1" pageScale="1" pageWidth="827" pageHeight="1169" math="0" shadow="0">
      <root>
        <mxCell id="0" />
        <mxCell id="1" parent="0" />
        <mxCell id="1yO2_QKllvV9YDsZZxTQ-1" value="Cán bộ" style="rounded=0;whiteSpace=wrap;html=1;" vertex="1" parent="1">
          <mxGeometry x="180" y="230" width="120" height="60" as="geometry" />
        </mxCell>
        <mxCell id="1yO2_QKllvV9YDsZZxTQ-37" style="rounded=0;orthogonalLoop=1;jettySize=auto;html=1;entryX=0;entryY=0;entryDx=0;entryDy=0;endArrow=none;endFill=0;" edge="1" parent="1" source="1yO2_QKllvV9YDsZZxTQ-2" target="1yO2_QKllvV9YDsZZxTQ-36">
          <mxGeometry relative="1" as="geometry" />
        </mxCell>
        <mxCell id="1yO2_QKllvV9YDsZZxTQ-105" value="(1,1)" style="edgeLabel;html=1;align=center;verticalAlign=middle;resizable=0;points=[];" vertex="1" connectable="0" parent="1yO2_QKllvV9YDsZZxTQ-37">
          <mxGeometry x="-0.7051" y="-1" relative="1" as="geometry">
            <mxPoint as="offset" />
          </mxGeometry>
        </mxCell>
        <mxCell id="1yO2_QKllvV9YDsZZxTQ-71" style="rounded=0;orthogonalLoop=1;jettySize=auto;html=1;entryX=0;entryY=0.5;entryDx=0;entryDy=0;endArrow=none;endFill=0;" edge="1" parent="1" source="1yO2_QKllvV9YDsZZxTQ-2" target="1yO2_QKllvV9YDsZZxTQ-70">
          <mxGeometry relative="1" as="geometry" />
        </mxCell>
        <mxCell id="1yO2_QKllvV9YDsZZxTQ-100" value="(1,N)" style="edgeLabel;html=1;align=center;verticalAlign=middle;resizable=0;points=[];" vertex="1" connectable="0" parent="1yO2_QKllvV9YDsZZxTQ-71">
          <mxGeometry x="-0.8488" y="1" relative="1" as="geometry">
            <mxPoint x="8" y="2" as="offset" />
          </mxGeometry>
        </mxCell>
        <mxCell id="1yO2_QKllvV9YDsZZxTQ-2" value="Đề thi" style="rounded=0;whiteSpace=wrap;html=1;" vertex="1" parent="1">
          <mxGeometry x="75" y="550" width="120" height="60" as="geometry" />
        </mxCell>
        <mxCell id="1yO2_QKllvV9YDsZZxTQ-3" value="Học sinh" style="rounded=0;whiteSpace=wrap;html=1;" vertex="1" parent="1">
          <mxGeometry x="530" y="140" width="120" height="60" as="geometry" />
        </mxCell>
        <mxCell id="1yO2_QKllvV9YDsZZxTQ-4" value="Môn học" style="rounded=0;whiteSpace=wrap;html=1;" vertex="1" parent="1">
          <mxGeometry x="180" y="780" width="120" height="60" as="geometry" />
        </mxCell>
        <mxCell id="1yO2_QKllvV9YDsZZxTQ-5" value="Lớp học" style="rounded=0;whiteSpace=wrap;html=1;" vertex="1" parent="1">
          <mxGeometry x="660" y="430" width="120" height="60" as="geometry" />
        </mxCell>
        <mxCell id="1yO2_QKllvV9YDsZZxTQ-45" style="edgeStyle=orthogonalEdgeStyle;rounded=0;orthogonalLoop=1;jettySize=auto;html=1;entryX=1;entryY=0.5;entryDx=0;entryDy=0;endArrow=none;endFill=0;" edge="1" parent="1" source="1yO2_QKllvV9YDsZZxTQ-6" target="1yO2_QKllvV9YDsZZxTQ-43">
          <mxGeometry relative="1" as="geometry" />
        </mxCell>
        <mxCell id="1yO2_QKllvV9YDsZZxTQ-107" value="(1,1)" style="edgeLabel;html=1;align=center;verticalAlign=middle;resizable=0;points=[];" vertex="1" connectable="0" parent="1yO2_QKllvV9YDsZZxTQ-45">
          <mxGeometry x="-0.7737" y="1" relative="1" as="geometry">
            <mxPoint as="offset" />
          </mxGeometry>
        </mxCell>
        <mxCell id="1yO2_QKllvV9YDsZZxTQ-62" style="rounded=0;orthogonalLoop=1;jettySize=auto;html=1;endArrow=none;endFill=0;" edge="1" parent="1" source="1yO2_QKllvV9YDsZZxTQ-6" target="1yO2_QKllvV9YDsZZxTQ-60">
          <mxGeometry relative="1" as="geometry" />
        </mxCell>
        <mxCell id="1yO2_QKllvV9YDsZZxTQ-6" value="Câu hỏi" style="rounded=0;whiteSpace=wrap;html=1;" vertex="1" parent="1">
          <mxGeometry x="635" y="705" width="120" height="60" as="geometry" />
        </mxCell>
        <mxCell id="1yO2_QKllvV9YDsZZxTQ-8" style="rounded=0;orthogonalLoop=1;jettySize=auto;html=1;endArrow=none;endFill=0;" edge="1" parent="1" source="1yO2_QKllvV9YDsZZxTQ-7" target="1yO2_QKllvV9YDsZZxTQ-1">
          <mxGeometry relative="1" as="geometry" />
        </mxCell>
        <mxCell id="1yO2_QKllvV9YDsZZxTQ-98" value="(1,N)" style="edgeLabel;html=1;align=center;verticalAlign=middle;resizable=0;points=[];" vertex="1" connectable="0" parent="1yO2_QKllvV9YDsZZxTQ-8">
          <mxGeometry x="0.5421" relative="1" as="geometry">
            <mxPoint as="offset" />
          </mxGeometry>
        </mxCell>
        <mxCell id="1yO2_QKllvV9YDsZZxTQ-9" style="rounded=0;orthogonalLoop=1;jettySize=auto;html=1;endArrow=none;endFill=0;" edge="1" parent="1" source="1yO2_QKllvV9YDsZZxTQ-7" target="1yO2_QKllvV9YDsZZxTQ-2">
          <mxGeometry relative="1" as="geometry" />
        </mxCell>
        <mxCell id="1yO2_QKllvV9YDsZZxTQ-99" value="(1,N)" style="edgeLabel;html=1;align=center;verticalAlign=middle;resizable=0;points=[];" vertex="1" connectable="0" parent="1yO2_QKllvV9YDsZZxTQ-9">
          <mxGeometry x="0.6438" y="1" relative="1" as="geometry">
            <mxPoint as="offset" />
          </mxGeometry>
        </mxCell>
        <mxCell id="1yO2_QKllvV9YDsZZxTQ-7" value="Quản lí" style="rhombus;whiteSpace=wrap;html=1;" vertex="1" parent="1">
          <mxGeometry x="205" y="380" width="118.06" height="50" as="geometry" />
        </mxCell>
        <mxCell id="1yO2_QKllvV9YDsZZxTQ-11" style="rounded=0;orthogonalLoop=1;jettySize=auto;html=1;endArrow=none;endFill=0;" edge="1" parent="1" source="1yO2_QKllvV9YDsZZxTQ-10" target="1yO2_QKllvV9YDsZZxTQ-1">
          <mxGeometry relative="1" as="geometry" />
        </mxCell>
        <mxCell id="1yO2_QKllvV9YDsZZxTQ-10" value="MaCB" style="ellipse;whiteSpace=wrap;html=1;" vertex="1" parent="1">
          <mxGeometry x="205" y="100" width="90" height="60" as="geometry" />
        </mxCell>
        <mxCell id="1yO2_QKllvV9YDsZZxTQ-12" value="Họ tên" style="ellipse;whiteSpace=wrap;html=1;" vertex="1" parent="1">
          <mxGeometry x="110" y="70" width="90" height="60" as="geometry" />
        </mxCell>
        <mxCell id="1yO2_QKllvV9YDsZZxTQ-13" value="Giới tính" style="ellipse;whiteSpace=wrap;html=1;" vertex="1" parent="1">
          <mxGeometry x="50" y="130" width="90" height="60" as="geometry" />
        </mxCell>
        <mxCell id="1yO2_QKllvV9YDsZZxTQ-14" value="Ngày sinh" style="ellipse;whiteSpace=wrap;html=1;" vertex="1" parent="1">
          <mxGeometry x="40" y="200" width="90" height="60" as="geometry" />
        </mxCell>
        <mxCell id="1yO2_QKllvV9YDsZZxTQ-15" value="Địa chỉ" style="ellipse;whiteSpace=wrap;html=1;" vertex="1" parent="1">
          <mxGeometry x="40" y="270" width="90" height="60" as="geometry" />
        </mxCell>
        <mxCell id="1yO2_QKllvV9YDsZZxTQ-16" style="rounded=0;orthogonalLoop=1;jettySize=auto;html=1;endArrow=none;endFill=0;entryX=0.25;entryY=0;entryDx=0;entryDy=0;" edge="1" parent="1" source="1yO2_QKllvV9YDsZZxTQ-12" target="1yO2_QKllvV9YDsZZxTQ-1">
          <mxGeometry relative="1" as="geometry">
            <mxPoint x="252" y="150" as="sourcePoint" />
            <mxPoint x="238" y="200" as="targetPoint" />
          </mxGeometry>
        </mxCell>
        <mxCell id="1yO2_QKllvV9YDsZZxTQ-17" style="rounded=0;orthogonalLoop=1;jettySize=auto;html=1;endArrow=none;endFill=0;" edge="1" parent="1" source="1yO2_QKllvV9YDsZZxTQ-13" target="1yO2_QKllvV9YDsZZxTQ-1">
          <mxGeometry relative="1" as="geometry">
            <mxPoint x="262" y="160" as="sourcePoint" />
            <mxPoint x="248" y="210" as="targetPoint" />
          </mxGeometry>
        </mxCell>
        <mxCell id="1yO2_QKllvV9YDsZZxTQ-18" style="rounded=0;orthogonalLoop=1;jettySize=auto;html=1;endArrow=none;endFill=0;entryX=0.978;entryY=0.733;entryDx=0;entryDy=0;entryPerimeter=0;" edge="1" parent="1" source="1yO2_QKllvV9YDsZZxTQ-1" target="1yO2_QKllvV9YDsZZxTQ-14">
          <mxGeometry relative="1" as="geometry">
            <mxPoint x="272" y="170" as="sourcePoint" />
            <mxPoint x="258" y="220" as="targetPoint" />
          </mxGeometry>
        </mxCell>
        <mxCell id="1yO2_QKllvV9YDsZZxTQ-19" style="rounded=0;orthogonalLoop=1;jettySize=auto;html=1;endArrow=none;endFill=0;" edge="1" parent="1" source="1yO2_QKllvV9YDsZZxTQ-15" target="1yO2_QKllvV9YDsZZxTQ-1">
          <mxGeometry relative="1" as="geometry">
            <mxPoint x="282" y="180" as="sourcePoint" />
            <mxPoint x="200" y="250" as="targetPoint" />
          </mxGeometry>
        </mxCell>
        <mxCell id="1yO2_QKllvV9YDsZZxTQ-20" value="Mã đề thi" style="ellipse;whiteSpace=wrap;html=1;" vertex="1" parent="1">
          <mxGeometry x="80" y="390" width="90" height="60" as="geometry" />
        </mxCell>
        <mxCell id="1yO2_QKllvV9YDsZZxTQ-21" value="Tên đề thi" style="ellipse;whiteSpace=wrap;html=1;" vertex="1" parent="1">
          <mxGeometry x="-20" y="410" width="90" height="60" as="geometry" />
        </mxCell>
        <mxCell id="1yO2_QKllvV9YDsZZxTQ-22" value="Thời gian làm bài" style="ellipse;whiteSpace=wrap;html=1;" vertex="1" parent="1">
          <mxGeometry x="-60" y="470" width="90" height="60" as="geometry" />
        </mxCell>
        <mxCell id="1yO2_QKllvV9YDsZZxTQ-23" value="Số lượng câu" style="ellipse;whiteSpace=wrap;html=1;" vertex="1" parent="1">
          <mxGeometry x="-70" y="540" width="90" height="60" as="geometry" />
        </mxCell>
        <mxCell id="1yO2_QKllvV9YDsZZxTQ-24" value="Nội dung đề thi" style="ellipse;whiteSpace=wrap;html=1;" vertex="1" parent="1">
          <mxGeometry x="-80" y="610" width="90" height="60" as="geometry" />
        </mxCell>
        <mxCell id="1yO2_QKllvV9YDsZZxTQ-28" style="rounded=0;orthogonalLoop=1;jettySize=auto;html=1;endArrow=none;endFill=0;" edge="1" parent="1" source="1yO2_QKllvV9YDsZZxTQ-20" target="1yO2_QKllvV9YDsZZxTQ-2">
          <mxGeometry relative="1" as="geometry">
            <mxPoint x="250" y="366" as="sourcePoint" />
            <mxPoint x="159" y="560" as="targetPoint" />
          </mxGeometry>
        </mxCell>
        <mxCell id="1yO2_QKllvV9YDsZZxTQ-29" style="rounded=0;orthogonalLoop=1;jettySize=auto;html=1;endArrow=none;endFill=0;exitX=0.978;exitY=0.667;exitDx=0;exitDy=0;exitPerimeter=0;" edge="1" parent="1" source="1yO2_QKllvV9YDsZZxTQ-21" target="1yO2_QKllvV9YDsZZxTQ-2">
          <mxGeometry relative="1" as="geometry">
            <mxPoint x="260" y="376" as="sourcePoint" />
            <mxPoint x="169" y="570" as="targetPoint" />
          </mxGeometry>
        </mxCell>
        <mxCell id="1yO2_QKllvV9YDsZZxTQ-30" style="rounded=0;orthogonalLoop=1;jettySize=auto;html=1;endArrow=none;endFill=0;exitX=1;exitY=0.5;exitDx=0;exitDy=0;" edge="1" parent="1" source="1yO2_QKllvV9YDsZZxTQ-22" target="1yO2_QKllvV9YDsZZxTQ-2">
          <mxGeometry relative="1" as="geometry">
            <mxPoint x="270" y="386" as="sourcePoint" />
            <mxPoint x="179" y="580" as="targetPoint" />
          </mxGeometry>
        </mxCell>
        <mxCell id="1yO2_QKllvV9YDsZZxTQ-34" style="rounded=0;orthogonalLoop=1;jettySize=auto;html=1;endArrow=none;endFill=0;entryX=0;entryY=0.367;entryDx=0;entryDy=0;entryPerimeter=0;" edge="1" parent="1" source="1yO2_QKllvV9YDsZZxTQ-23" target="1yO2_QKllvV9YDsZZxTQ-2">
          <mxGeometry relative="1" as="geometry">
            <mxPoint x="310" y="426" as="sourcePoint" />
            <mxPoint x="219" y="620" as="targetPoint" />
          </mxGeometry>
        </mxCell>
        <mxCell id="1yO2_QKllvV9YDsZZxTQ-35" style="rounded=0;orthogonalLoop=1;jettySize=auto;html=1;endArrow=none;endFill=0;exitX=0.989;exitY=0.367;exitDx=0;exitDy=0;exitPerimeter=0;" edge="1" parent="1" source="1yO2_QKllvV9YDsZZxTQ-24" target="1yO2_QKllvV9YDsZZxTQ-2">
          <mxGeometry relative="1" as="geometry">
            <mxPoint x="320" y="436" as="sourcePoint" />
            <mxPoint x="229" y="630" as="targetPoint" />
          </mxGeometry>
        </mxCell>
        <mxCell id="1yO2_QKllvV9YDsZZxTQ-38" style="rounded=0;orthogonalLoop=1;jettySize=auto;html=1;entryX=0.75;entryY=0;entryDx=0;entryDy=0;endArrow=none;endFill=0;" edge="1" parent="1" source="1yO2_QKllvV9YDsZZxTQ-36" target="1yO2_QKllvV9YDsZZxTQ-4">
          <mxGeometry relative="1" as="geometry" />
        </mxCell>
        <mxCell id="1yO2_QKllvV9YDsZZxTQ-104" value="(1,N)" style="edgeLabel;html=1;align=center;verticalAlign=middle;resizable=0;points=[];" vertex="1" connectable="0" parent="1yO2_QKllvV9YDsZZxTQ-38">
          <mxGeometry x="0.6415" y="-1" relative="1" as="geometry">
            <mxPoint x="1" as="offset" />
          </mxGeometry>
        </mxCell>
        <mxCell id="1yO2_QKllvV9YDsZZxTQ-36" value="Quản lí" style="rhombus;whiteSpace=wrap;html=1;" vertex="1" parent="1">
          <mxGeometry x="285.97" y="650" width="118.06" height="50" as="geometry" />
        </mxCell>
        <mxCell id="1yO2_QKllvV9YDsZZxTQ-41" style="edgeStyle=orthogonalEdgeStyle;rounded=0;orthogonalLoop=1;jettySize=auto;html=1;entryX=0;entryY=0.5;entryDx=0;entryDy=0;endArrow=none;endFill=0;" edge="1" parent="1" source="1yO2_QKllvV9YDsZZxTQ-39" target="1yO2_QKllvV9YDsZZxTQ-4">
          <mxGeometry relative="1" as="geometry" />
        </mxCell>
        <mxCell id="1yO2_QKllvV9YDsZZxTQ-39" value="Mã môn học" style="ellipse;whiteSpace=wrap;html=1;" vertex="1" parent="1">
          <mxGeometry x="30" y="810" width="90" height="60" as="geometry" />
        </mxCell>
        <mxCell id="1yO2_QKllvV9YDsZZxTQ-42" style="edgeStyle=orthogonalEdgeStyle;rounded=0;orthogonalLoop=1;jettySize=auto;html=1;entryX=0.25;entryY=1;entryDx=0;entryDy=0;endArrow=none;endFill=0;" edge="1" parent="1" source="1yO2_QKllvV9YDsZZxTQ-40" target="1yO2_QKllvV9YDsZZxTQ-4">
          <mxGeometry relative="1" as="geometry" />
        </mxCell>
        <mxCell id="1yO2_QKllvV9YDsZZxTQ-40" value="Tên môn học" style="ellipse;whiteSpace=wrap;html=1;" vertex="1" parent="1">
          <mxGeometry x="90" y="900" width="90" height="60" as="geometry" />
        </mxCell>
        <mxCell id="1yO2_QKllvV9YDsZZxTQ-44" style="rounded=0;orthogonalLoop=1;jettySize=auto;html=1;entryX=1;entryY=0.5;entryDx=0;entryDy=0;endArrow=none;endFill=0;" edge="1" parent="1" source="1yO2_QKllvV9YDsZZxTQ-43" target="1yO2_QKllvV9YDsZZxTQ-4">
          <mxGeometry relative="1" as="geometry" />
        </mxCell>
        <mxCell id="1yO2_QKllvV9YDsZZxTQ-106" value="(1,N)" style="edgeLabel;html=1;align=center;verticalAlign=middle;resizable=0;points=[];" vertex="1" connectable="0" parent="1yO2_QKllvV9YDsZZxTQ-44">
          <mxGeometry x="0.4699" y="-1" relative="1" as="geometry">
            <mxPoint as="offset" />
          </mxGeometry>
        </mxCell>
        <mxCell id="1yO2_QKllvV9YDsZZxTQ-43" value="Chương" style="rhombus;whiteSpace=wrap;html=1;" vertex="1" parent="1">
          <mxGeometry x="380" y="790" width="118.06" height="50" as="geometry" />
        </mxCell>
        <mxCell id="1yO2_QKllvV9YDsZZxTQ-47" style="rounded=0;orthogonalLoop=1;jettySize=auto;html=1;entryX=0;entryY=1;entryDx=0;entryDy=0;endArrow=none;endFill=0;" edge="1" parent="1" source="1yO2_QKllvV9YDsZZxTQ-46" target="1yO2_QKllvV9YDsZZxTQ-43">
          <mxGeometry relative="1" as="geometry" />
        </mxCell>
        <mxCell id="1yO2_QKllvV9YDsZZxTQ-46" value="Mã chương" style="ellipse;whiteSpace=wrap;html=1;" vertex="1" parent="1">
          <mxGeometry x="300" y="860" width="90" height="60" as="geometry" />
        </mxCell>
        <mxCell id="1yO2_QKllvV9YDsZZxTQ-49" style="edgeStyle=orthogonalEdgeStyle;rounded=0;orthogonalLoop=1;jettySize=auto;html=1;endArrow=none;endFill=0;" edge="1" parent="1" source="1yO2_QKllvV9YDsZZxTQ-48" target="1yO2_QKllvV9YDsZZxTQ-43">
          <mxGeometry relative="1" as="geometry" />
        </mxCell>
        <mxCell id="1yO2_QKllvV9YDsZZxTQ-48" value="Tên chương" style="ellipse;whiteSpace=wrap;html=1;" vertex="1" parent="1">
          <mxGeometry x="394.03" y="900" width="90" height="60" as="geometry" />
        </mxCell>
        <mxCell id="1yO2_QKllvV9YDsZZxTQ-55" style="rounded=0;orthogonalLoop=1;jettySize=auto;html=1;endArrow=none;endFill=0;" edge="1" parent="1" source="1yO2_QKllvV9YDsZZxTQ-54" target="1yO2_QKllvV9YDsZZxTQ-6">
          <mxGeometry relative="1" as="geometry" />
        </mxCell>
        <mxCell id="1yO2_QKllvV9YDsZZxTQ-54" value="Đáp án đúng" style="ellipse;whiteSpace=wrap;html=1;" vertex="1" parent="1">
          <mxGeometry x="695" y="790" width="90" height="60" as="geometry" />
        </mxCell>
        <mxCell id="1yO2_QKllvV9YDsZZxTQ-57" style="rounded=0;orthogonalLoop=1;jettySize=auto;html=1;entryX=0.25;entryY=0;entryDx=0;entryDy=0;endArrow=none;endFill=0;" edge="1" parent="1" source="1yO2_QKllvV9YDsZZxTQ-56" target="1yO2_QKllvV9YDsZZxTQ-6">
          <mxGeometry relative="1" as="geometry" />
        </mxCell>
        <mxCell id="1yO2_QKllvV9YDsZZxTQ-56" value="Nội dung câu hỏi" style="ellipse;whiteSpace=wrap;html=1;" vertex="1" parent="1">
          <mxGeometry x="665" y="610" width="90" height="60" as="geometry" />
        </mxCell>
        <mxCell id="1yO2_QKllvV9YDsZZxTQ-59" style="rounded=0;orthogonalLoop=1;jettySize=auto;html=1;endArrow=none;endFill=0;" edge="1" parent="1" source="1yO2_QKllvV9YDsZZxTQ-58" target="1yO2_QKllvV9YDsZZxTQ-6">
          <mxGeometry relative="1" as="geometry" />
        </mxCell>
        <mxCell id="1yO2_QKllvV9YDsZZxTQ-58" value="Mã câu hỏi" style="ellipse;whiteSpace=wrap;html=1;" vertex="1" parent="1">
          <mxGeometry x="765" y="620" width="90" height="60" as="geometry" />
        </mxCell>
        <mxCell id="1yO2_QKllvV9YDsZZxTQ-60" value="Các đáp án" style="ellipse;whiteSpace=wrap;html=1;shadow=0;strokeColor=default;" vertex="1" parent="1">
          <mxGeometry x="795" y="750" width="90" height="60" as="geometry" />
        </mxCell>
        <mxCell id="1yO2_QKllvV9YDsZZxTQ-68" style="rounded=0;orthogonalLoop=1;jettySize=auto;html=1;endArrow=none;endFill=0;" edge="1" parent="1" source="1yO2_QKllvV9YDsZZxTQ-61" target="1yO2_QKllvV9YDsZZxTQ-60">
          <mxGeometry relative="1" as="geometry" />
        </mxCell>
        <mxCell id="1yO2_QKllvV9YDsZZxTQ-61" value="Đáp án A" style="ellipse;whiteSpace=wrap;html=1;shadow=0;strokeColor=default;" vertex="1" parent="1">
          <mxGeometry x="805" y="870" width="90" height="60" as="geometry" />
        </mxCell>
        <mxCell id="1yO2_QKllvV9YDsZZxTQ-69" style="rounded=0;orthogonalLoop=1;jettySize=auto;html=1;endArrow=none;endFill=0;" edge="1" parent="1" source="1yO2_QKllvV9YDsZZxTQ-63" target="1yO2_QKllvV9YDsZZxTQ-60">
          <mxGeometry relative="1" as="geometry" />
        </mxCell>
        <mxCell id="1yO2_QKllvV9YDsZZxTQ-63" value="Đáp án B" style="ellipse;whiteSpace=wrap;html=1;shadow=0;strokeColor=default;" vertex="1" parent="1">
          <mxGeometry x="905" y="840" width="90" height="60" as="geometry" />
        </mxCell>
        <mxCell id="1yO2_QKllvV9YDsZZxTQ-67" style="rounded=0;orthogonalLoop=1;jettySize=auto;html=1;endArrow=none;endFill=0;" edge="1" parent="1" source="1yO2_QKllvV9YDsZZxTQ-64" target="1yO2_QKllvV9YDsZZxTQ-60">
          <mxGeometry relative="1" as="geometry" />
        </mxCell>
        <mxCell id="1yO2_QKllvV9YDsZZxTQ-64" value="Đáp án C" style="ellipse;whiteSpace=wrap;html=1;shadow=0;strokeColor=default;" vertex="1" parent="1">
          <mxGeometry x="935" y="760" width="90" height="60" as="geometry" />
        </mxCell>
        <mxCell id="1yO2_QKllvV9YDsZZxTQ-66" style="rounded=0;orthogonalLoop=1;jettySize=auto;html=1;endArrow=none;endFill=0;" edge="1" parent="1" source="1yO2_QKllvV9YDsZZxTQ-65" target="1yO2_QKllvV9YDsZZxTQ-60">
          <mxGeometry relative="1" as="geometry" />
        </mxCell>
        <mxCell id="1yO2_QKllvV9YDsZZxTQ-65" value="Đáp án D" style="ellipse;whiteSpace=wrap;html=1;shadow=0;strokeColor=default;" vertex="1" parent="1">
          <mxGeometry x="875" y="680" width="90" height="60" as="geometry" />
        </mxCell>
        <mxCell id="1yO2_QKllvV9YDsZZxTQ-72" style="rounded=0;orthogonalLoop=1;jettySize=auto;html=1;entryX=0;entryY=0.5;entryDx=0;entryDy=0;endArrow=none;endFill=0;" edge="1" parent="1" source="1yO2_QKllvV9YDsZZxTQ-70" target="1yO2_QKllvV9YDsZZxTQ-5">
          <mxGeometry relative="1" as="geometry" />
        </mxCell>
        <mxCell id="1yO2_QKllvV9YDsZZxTQ-101" value="(1,N))" style="edgeLabel;html=1;align=center;verticalAlign=middle;resizable=0;points=[];" vertex="1" connectable="0" parent="1yO2_QKllvV9YDsZZxTQ-72">
          <mxGeometry x="0.8025" y="1" relative="1" as="geometry">
            <mxPoint x="-10" y="11" as="offset" />
          </mxGeometry>
        </mxCell>
        <mxCell id="1yO2_QKllvV9YDsZZxTQ-70" value="Bài làm" style="rhombus;whiteSpace=wrap;html=1;" vertex="1" parent="1">
          <mxGeometry x="425.96999999999997" y="550" width="118.06" height="50" as="geometry" />
        </mxCell>
        <mxCell id="1yO2_QKllvV9YDsZZxTQ-76" style="rounded=0;orthogonalLoop=1;jettySize=auto;html=1;entryX=1;entryY=1;entryDx=0;entryDy=0;endArrow=none;endFill=0;" edge="1" parent="1" source="1yO2_QKllvV9YDsZZxTQ-73" target="1yO2_QKllvV9YDsZZxTQ-5">
          <mxGeometry relative="1" as="geometry" />
        </mxCell>
        <mxCell id="1yO2_QKllvV9YDsZZxTQ-73" value="Mã lớp" style="ellipse;whiteSpace=wrap;html=1;" vertex="1" parent="1">
          <mxGeometry x="827" y="480" width="90" height="60" as="geometry" />
        </mxCell>
        <mxCell id="1yO2_QKllvV9YDsZZxTQ-75" style="rounded=0;orthogonalLoop=1;jettySize=auto;html=1;entryX=1;entryY=0.25;entryDx=0;entryDy=0;endArrow=none;endFill=0;" edge="1" parent="1" source="1yO2_QKllvV9YDsZZxTQ-74" target="1yO2_QKllvV9YDsZZxTQ-5">
          <mxGeometry relative="1" as="geometry" />
        </mxCell>
        <mxCell id="1yO2_QKllvV9YDsZZxTQ-74" value="Tên lớp" style="ellipse;whiteSpace=wrap;html=1;" vertex="1" parent="1">
          <mxGeometry x="827" y="410" width="90" height="60" as="geometry" />
        </mxCell>
        <mxCell id="1yO2_QKllvV9YDsZZxTQ-78" style="edgeStyle=orthogonalEdgeStyle;rounded=0;orthogonalLoop=1;jettySize=auto;html=1;endArrow=none;endFill=0;" edge="1" parent="1" source="1yO2_QKllvV9YDsZZxTQ-77" target="1yO2_QKllvV9YDsZZxTQ-5">
          <mxGeometry relative="1" as="geometry" />
        </mxCell>
        <mxCell id="1yO2_QKllvV9YDsZZxTQ-103" value="(1,N))" style="edgeLabel;html=1;align=center;verticalAlign=middle;resizable=0;points=[];" vertex="1" connectable="0" parent="1yO2_QKllvV9YDsZZxTQ-78">
          <mxGeometry x="0.637" y="2" relative="1" as="geometry">
            <mxPoint as="offset" />
          </mxGeometry>
        </mxCell>
        <mxCell id="1yO2_QKllvV9YDsZZxTQ-79" style="rounded=0;orthogonalLoop=1;jettySize=auto;html=1;entryX=0.5;entryY=1;entryDx=0;entryDy=0;endArrow=none;endFill=0;" edge="1" parent="1" source="1yO2_QKllvV9YDsZZxTQ-77" target="1yO2_QKllvV9YDsZZxTQ-3">
          <mxGeometry relative="1" as="geometry" />
        </mxCell>
        <mxCell id="1yO2_QKllvV9YDsZZxTQ-102" value="(1,1)" style="edgeLabel;html=1;align=center;verticalAlign=middle;resizable=0;points=[];" vertex="1" connectable="0" parent="1yO2_QKllvV9YDsZZxTQ-79">
          <mxGeometry x="0.6218" y="-1" relative="1" as="geometry">
            <mxPoint as="offset" />
          </mxGeometry>
        </mxCell>
        <mxCell id="1yO2_QKllvV9YDsZZxTQ-77" value="Thuộc" style="rhombus;whiteSpace=wrap;html=1;" vertex="1" parent="1">
          <mxGeometry x="660" y="280" width="118.06" height="50" as="geometry" />
        </mxCell>
        <mxCell id="1yO2_QKllvV9YDsZZxTQ-87" style="edgeStyle=orthogonalEdgeStyle;rounded=0;orthogonalLoop=1;jettySize=auto;html=1;entryX=0.5;entryY=0;entryDx=0;entryDy=0;endArrow=none;endFill=0;" edge="1" parent="1" source="1yO2_QKllvV9YDsZZxTQ-80" target="1yO2_QKllvV9YDsZZxTQ-3">
          <mxGeometry relative="1" as="geometry" />
        </mxCell>
        <mxCell id="1yO2_QKllvV9YDsZZxTQ-80" value="Mã HS" style="ellipse;whiteSpace=wrap;html=1;" vertex="1" parent="1">
          <mxGeometry x="545" width="90" height="60" as="geometry" />
        </mxCell>
        <mxCell id="1yO2_QKllvV9YDsZZxTQ-88" style="rounded=0;orthogonalLoop=1;jettySize=auto;html=1;endArrow=none;endFill=0;" edge="1" parent="1" source="1yO2_QKllvV9YDsZZxTQ-81" target="1yO2_QKllvV9YDsZZxTQ-3">
          <mxGeometry relative="1" as="geometry" />
        </mxCell>
        <mxCell id="1yO2_QKllvV9YDsZZxTQ-81" value="Họ tên" style="ellipse;whiteSpace=wrap;html=1;" vertex="1" parent="1">
          <mxGeometry x="641.5" y="30" width="90" height="60" as="geometry" />
        </mxCell>
        <mxCell id="1yO2_QKllvV9YDsZZxTQ-85" style="rounded=0;orthogonalLoop=1;jettySize=auto;html=1;endArrow=none;endFill=0;" edge="1" parent="1" source="1yO2_QKllvV9YDsZZxTQ-82" target="1yO2_QKllvV9YDsZZxTQ-3">
          <mxGeometry relative="1" as="geometry" />
        </mxCell>
        <mxCell id="1yO2_QKllvV9YDsZZxTQ-82" value="Giới tính" style="ellipse;whiteSpace=wrap;html=1;" vertex="1" parent="1">
          <mxGeometry x="400" y="110" width="90" height="60" as="geometry" />
        </mxCell>
        <mxCell id="1yO2_QKllvV9YDsZZxTQ-86" style="rounded=0;orthogonalLoop=1;jettySize=auto;html=1;endArrow=none;endFill=0;" edge="1" parent="1" source="1yO2_QKllvV9YDsZZxTQ-83" target="1yO2_QKllvV9YDsZZxTQ-3">
          <mxGeometry relative="1" as="geometry" />
        </mxCell>
        <mxCell id="1yO2_QKllvV9YDsZZxTQ-83" value="Ngày sinh" style="ellipse;whiteSpace=wrap;html=1;" vertex="1" parent="1">
          <mxGeometry x="440" y="20" width="90" height="60" as="geometry" />
        </mxCell>
        <mxCell id="1yO2_QKllvV9YDsZZxTQ-89" style="rounded=0;orthogonalLoop=1;jettySize=auto;html=1;entryX=1;entryY=0.5;entryDx=0;entryDy=0;endArrow=none;endFill=0;" edge="1" parent="1" source="1yO2_QKllvV9YDsZZxTQ-84" target="1yO2_QKllvV9YDsZZxTQ-3">
          <mxGeometry relative="1" as="geometry" />
        </mxCell>
        <mxCell id="1yO2_QKllvV9YDsZZxTQ-84" value="Địa chỉ" style="ellipse;whiteSpace=wrap;html=1;" vertex="1" parent="1">
          <mxGeometry x="690" y="110" width="90" height="60" as="geometry" />
        </mxCell>
        <mxCell id="1yO2_QKllvV9YDsZZxTQ-92" value="Các đáp án" style="ellipse;whiteSpace=wrap;html=1;" vertex="1" parent="1">
          <mxGeometry x="430.00000000000006" y="420" width="90" height="60" as="geometry" />
        </mxCell>
        <mxCell id="1yO2_QKllvV9YDsZZxTQ-94" style="rounded=0;orthogonalLoop=1;jettySize=auto;html=1;endArrow=none;endFill=0;" edge="1" parent="1" source="1yO2_QKllvV9YDsZZxTQ-93" target="1yO2_QKllvV9YDsZZxTQ-70">
          <mxGeometry relative="1" as="geometry" />
        </mxCell>
        <mxCell id="1yO2_QKllvV9YDsZZxTQ-93" value="Trạng thái" style="ellipse;whiteSpace=wrap;html=1;" vertex="1" parent="1">
          <mxGeometry x="340" y="460" width="90" height="60" as="geometry" />
        </mxCell>
        <mxCell id="1yO2_QKllvV9YDsZZxTQ-96" style="rounded=0;orthogonalLoop=1;jettySize=auto;html=1;entryX=0.5;entryY=0;entryDx=0;entryDy=0;endArrow=none;endFill=0;" edge="1" parent="1" source="1yO2_QKllvV9YDsZZxTQ-92" target="1yO2_QKllvV9YDsZZxTQ-70">
          <mxGeometry relative="1" as="geometry" />
        </mxCell>
      </root>
    </mxGraphModel>
  </diagram>
</mxfile>
